<svg width="16" height="16" viewBox="0 0 16 16" fill="none" xmlns="http://www.w3.org/2000/svg">
<path fill-rule="evenodd" clip-rule="evenodd" d="M8 16C12.4183 16 16 12.4183 16 8C16 3.58172 12.4183 0 8 0C3.58172 0 0 3.58172 0 8C0 12.4183 3.58172 16 8 16ZM9 4C9 4.55228 8.55228 5 8 5C7.44772 5 7 4.55228 7 4C7 3.44772 7.44772 3 8 3C8.55228 3 9 3.44772 9 4ZM7 8.2V11.8C7 12.4627 7.44772 13 8 13C8.55228 13 9 12.4627 9 11.8V8.2C9 7.53726 8.55228 7 8 7C7.44772 7 7 7.53726 7 8.2Z" fill="#594D75"/>
</svg>
