<svg width="231" height="32" viewBox="0 0 231 32" fill="none" xmlns="http://www.w3.org/2000/svg">
<path fill-rule="evenodd" clip-rule="evenodd" d="M18.5724 25.3322C16.5375 27.4354 13.8077 28.576 10.8596 28.576C7.87169 28.576 5.14191 27.4354 3.10698 25.3322C1.12169 23.2708 0 20.4456 0 17.432C0 14.4184 1.12169 11.5827 3.11691 9.53178C5.15183 7.42855 7.88161 6.28799 10.8695 6.28799C13.8176 6.28799 16.5474 7.42855 18.5823 9.53178C20.5776 11.5827 21.6992 14.4184 21.6992 17.432C21.6992 20.4456 20.5676 23.2708 18.5724 25.3322ZM10.8695 9.89802C6.96838 9.89802 4.03014 13.1418 4.03014 17.432C4.03014 21.7221 6.9783 24.9659 10.8695 24.9659C14.7209 24.9659 17.6691 21.7221 17.6691 17.432C17.6691 13.1418 14.7209 9.89802 10.8695 9.89802Z" fill="#48268C"/>
<path fill-rule="evenodd" clip-rule="evenodd" d="M44.2025 8.31804L35.8445 28.576L35.368 28.4803C32.9856 28.0126 32.5092 27.3643 31.3875 24.7284L25.1437 9.90168H22.8011V6.28799H31.6753V9.90168H29.5511L34.5739 22.1882L39.4378 9.90168H36.8371V6.28799H44.2025V8.31804Z" fill="#48268C"/>
<path fill-rule="evenodd" clip-rule="evenodd" d="M64.3831 25.3322C62.3481 27.4354 59.6184 28.576 56.6702 28.576C53.6823 28.576 50.9526 27.4354 48.9176 25.3322C46.9224 23.2813 45.8007 20.4456 45.8007 17.432C45.8007 14.4184 46.9224 11.5827 48.9176 9.53178C50.9526 7.42855 53.6823 6.28799 56.6702 6.28799C59.6184 6.28799 62.3481 7.42855 64.3831 9.53178C66.3783 11.5827 67.5 14.4184 67.5 17.432C67.5 20.4456 66.3783 23.2708 64.3831 25.3322ZM56.6702 9.89802C52.7691 9.89802 49.8309 13.1418 49.8309 17.432C49.8309 21.7221 52.779 24.9659 56.6702 24.9659C60.5217 24.9659 63.4698 21.7221 63.4698 17.432C63.4698 13.1418 60.5316 9.89802 56.6702 9.89802Z" fill="#48268C"/>
<path d="M76.9548 19.0581L76.1806 25.3935H72L74.2968 6.59355H80.5161C81.6344 6.59355 82.5892 6.73118 83.3806 7.00645C84.1806 7.27312 84.8344 7.64731 85.3419 8.12903C85.8581 8.60215 86.2366 9.16559 86.4774 9.81936C86.7183 10.4645 86.8387 11.1613 86.8387 11.9097C86.8387 12.9333 86.6796 13.8839 86.3613 14.7613C86.0516 15.6301 85.5742 16.3828 84.929 17.0194C84.2839 17.6559 83.4667 18.1548 82.4774 18.5161C81.4882 18.8774 80.3183 19.0581 78.9677 19.0581H76.9548ZM78.1161 9.72903L77.3548 15.8968H79.3806C79.9828 15.8968 80.486 15.8108 80.8903 15.6387C81.3032 15.4581 81.6344 15.2086 81.8839 14.8903C82.1419 14.5634 82.3269 14.1763 82.4387 13.729C82.5505 13.2817 82.6065 12.7914 82.6065 12.2581C82.6065 11.8882 82.5548 11.5484 82.4516 11.2387C82.357 10.929 82.2065 10.6624 82 10.4387C81.7935 10.2151 81.5312 10.043 81.2129 9.92258C80.9032 9.79355 80.5333 9.72903 80.1032 9.72903H78.1161Z" fill="#00C6CE"/>
<path d="M92.3534 22.6323C92.8007 22.6323 93.2007 22.4989 93.5534 22.2323C93.9061 21.957 94.2029 21.5871 94.4438 21.1226C94.6932 20.6495 94.8825 20.1032 95.0115 19.4839C95.1491 18.8559 95.2179 18.1892 95.2179 17.4839C95.2179 16.5118 95.0846 15.8194 94.8179 15.4065C94.5599 14.9849 94.1341 14.7742 93.5405 14.7742C93.0932 14.7742 92.6932 14.9118 92.3405 15.1871C91.9878 15.4538 91.6868 15.8194 91.4373 16.2839C91.1964 16.7484 91.0072 17.2946 90.8696 17.9226C90.7405 18.5505 90.676 19.2172 90.676 19.9226C90.676 20.8774 90.805 21.5699 91.0631 22C91.3298 22.4215 91.7599 22.6323 92.3534 22.6323ZM91.9921 25.6C91.2438 25.6 90.5427 25.4753 89.8889 25.2258C89.2438 24.9763 88.6803 24.6151 88.1986 24.1419C87.7255 23.6602 87.3513 23.071 87.076 22.3742C86.8093 21.6688 86.676 20.8602 86.676 19.9484C86.676 18.7613 86.8696 17.6731 87.2567 16.6839C87.6524 15.686 88.1814 14.8258 88.8438 14.1032C89.5061 13.3806 90.2717 12.8172 91.1405 12.4129C92.0179 12.0086 92.9384 11.8065 93.9018 11.8065C94.6502 11.8065 95.347 11.9312 95.9921 12.1806C96.6373 12.4301 97.1964 12.7957 97.6696 13.2774C98.1513 13.7505 98.5298 14.3398 98.805 15.0452C99.0803 15.7419 99.2179 16.5462 99.2179 17.4581C99.2179 18.628 99.0201 19.7118 98.6244 20.7097C98.2373 21.6989 97.7126 22.5591 97.0502 23.2903C96.3878 24.0129 95.6179 24.5806 94.7405 24.9936C93.8717 25.3979 92.9556 25.6 91.9921 25.6Z" fill="#00C6CE"/>
<path d="M105.866 12.0129L104.266 25.3935H100.317L101.917 12.0129H105.866ZM106.614 8.34839C106.614 8.66667 106.545 8.96774 106.408 9.25161C106.27 9.52688 106.089 9.77204 105.866 9.9871C105.642 10.1935 105.384 10.3613 105.092 10.4903C104.808 10.6108 104.515 10.671 104.214 10.671C103.913 10.671 103.625 10.6108 103.35 10.4903C103.074 10.3613 102.829 10.1935 102.614 9.9871C102.408 9.77204 102.24 9.52688 102.111 9.25161C101.982 8.96774 101.917 8.66667 101.917 8.34839C101.917 8.03011 101.982 7.72903 102.111 7.44516C102.24 7.16129 102.412 6.91183 102.627 6.69677C102.851 6.48172 103.1 6.31398 103.375 6.19355C103.651 6.06452 103.939 6 104.24 6C104.55 6 104.846 6.06021 105.13 6.18064C105.414 6.30107 105.664 6.46882 105.879 6.68387C106.102 6.89892 106.279 7.14839 106.408 7.43226C106.545 7.71613 106.614 8.0215 106.614 8.34839Z" fill="#00C6CE"/>
<path d="M114.834 25.3935L115.841 16.8903C115.858 16.7527 115.871 16.628 115.879 16.5161C115.888 16.3957 115.892 16.2839 115.892 16.1806C115.892 15.7247 115.811 15.4108 115.647 15.2387C115.492 15.0581 115.256 14.9677 114.938 14.9677C114.645 14.9677 114.34 15.0581 114.021 15.2387C113.703 15.4194 113.398 15.6731 113.105 16C112.821 16.3269 112.559 16.7269 112.318 17.2C112.077 17.6645 111.888 18.1806 111.75 18.7484L111.015 25.3935H107.015L108.615 12.0129H110.679C111.092 12.0129 111.415 12.1118 111.647 12.3097C111.879 12.4989 111.996 12.8129 111.996 13.2516V14.3226C112.641 13.4624 113.346 12.8301 114.112 12.4258C114.877 12.0129 115.669 11.8065 116.486 11.8065C116.985 11.8065 117.441 11.8968 117.854 12.0774C118.275 12.2581 118.636 12.5247 118.938 12.8774C119.239 13.2215 119.475 13.6473 119.647 14.1548C119.819 14.6624 119.905 15.2473 119.905 15.9097C119.905 16.0645 119.897 16.2237 119.879 16.3871C119.871 16.5505 119.858 16.7183 119.841 16.8903L118.834 25.3935H114.834Z" fill="#00C6CE"/>
<path d="M122.494 22.5032C122.494 22.443 122.494 22.3699 122.494 22.2839C122.494 22.1979 122.498 22.0774 122.507 21.9226C122.524 21.7591 122.545 21.5484 122.571 21.2903C122.606 21.0237 122.649 20.6753 122.7 20.2452L123.384 14.7742H122.313C122.15 14.7742 122.012 14.7226 121.9 14.6194C121.788 14.5075 121.732 14.3441 121.732 14.129C121.732 14.1204 121.741 14.0473 121.758 13.9097C121.775 13.7634 121.793 13.6129 121.81 13.4581C121.827 13.2946 121.844 13.1441 121.861 13.0065C121.879 12.8688 121.887 12.7914 121.887 12.7742L121.926 12.4258L123.952 12.0129L125.074 8.74839C125.203 8.33548 125.496 8.12903 125.952 8.12903H128.12L127.629 12.0387H130.623L130.287 14.7742H127.294L126.649 20.0258C126.606 20.3785 126.571 20.6581 126.545 20.8645C126.528 21.0624 126.511 21.2172 126.494 21.329C126.485 21.4323 126.477 21.5054 126.468 21.5484C126.468 21.5828 126.468 21.6043 126.468 21.6129C126.468 21.8624 126.524 22.0731 126.636 22.2452C126.756 22.4086 126.941 22.4903 127.191 22.4903C127.328 22.4903 127.44 22.4774 127.526 22.4516C127.621 22.4172 127.702 22.3828 127.771 22.3484C127.84 22.3054 127.905 22.271 127.965 22.2452C128.025 22.2108 128.094 22.1936 128.171 22.1936C128.292 22.1936 128.382 22.2237 128.442 22.2839C128.502 22.3355 128.558 22.4215 128.61 22.5419L129.487 24.4387C128.954 24.8258 128.382 25.1183 127.771 25.3161C127.16 25.5054 126.545 25.6 125.926 25.6C125.41 25.6 124.945 25.5312 124.532 25.3935C124.12 25.2473 123.763 25.0409 123.461 24.7742C123.169 24.4989 122.937 24.172 122.765 23.7935C122.601 23.4151 122.511 22.9849 122.494 22.5032Z" fill="#00C6CE"/>
<path d="M140.328 25.3935H136.096L138.393 6.59355H142.625L140.328 25.3935Z" fill="#00C6CE"/>
<path d="M151.074 25.3935L152.081 16.8903C152.098 16.7527 152.111 16.628 152.119 16.5161C152.128 16.3957 152.132 16.2839 152.132 16.1806C152.132 15.7247 152.051 15.4108 151.887 15.2387C151.732 15.0581 151.496 14.9677 151.177 14.9677C150.885 14.9677 150.58 15.0581 150.261 15.2387C149.943 15.4194 149.638 15.6731 149.345 16C149.061 16.3269 148.799 16.7269 148.558 17.2C148.317 17.6645 148.128 18.1806 147.99 18.7484L147.255 25.3935H143.255L144.855 12.0129H146.919C147.332 12.0129 147.655 12.1118 147.887 12.3097C148.119 12.4989 148.235 12.8129 148.235 13.2516V14.3226C148.881 13.4624 149.586 12.8301 150.352 12.4258C151.117 12.0129 151.909 11.8065 152.726 11.8065C153.225 11.8065 153.681 11.8968 154.094 12.0774C154.515 12.2581 154.876 12.5247 155.177 12.8774C155.479 13.2215 155.715 13.6473 155.887 14.1548C156.059 14.6624 156.145 15.2473 156.145 15.9097C156.145 16.0645 156.137 16.2237 156.119 16.3871C156.111 16.5505 156.098 16.7183 156.081 16.8903L155.074 25.3935H151.074Z" fill="#00C6CE"/>
<path d="M163.276 12.0129L161.65 25.4194C161.572 26.0473 161.413 26.6366 161.172 27.1871C160.94 27.7462 160.618 28.2323 160.205 28.6452C159.8 29.0667 159.306 29.3979 158.721 29.6387C158.136 29.8796 157.461 30 156.695 30C156.316 30 155.994 29.9785 155.727 29.9355C155.461 29.9011 155.19 29.8452 154.914 29.7677L155.301 27.6645C155.336 27.4839 155.413 27.3505 155.534 27.2645C155.646 27.1785 155.843 27.1355 156.127 27.1355C156.402 27.1355 156.635 27.1097 156.824 27.0581C157.005 27.0065 157.155 26.9161 157.276 26.7871C157.396 26.6581 157.491 26.4817 157.559 26.2581C157.628 26.043 157.684 25.7634 157.727 25.4194L159.353 12.0129H163.276ZM163.869 8.34839C163.869 8.66667 163.8 8.96774 163.663 9.25161C163.525 9.52688 163.344 9.77204 163.121 9.9871C162.897 10.1935 162.639 10.3613 162.347 10.4903C162.063 10.6108 161.77 10.671 161.469 10.671C161.168 10.671 160.88 10.6108 160.605 10.4903C160.329 10.3613 160.084 10.1935 159.869 9.9871C159.663 9.77204 159.495 9.52688 159.366 9.25161C159.237 8.96774 159.172 8.66667 159.172 8.34839C159.172 8.03011 159.237 7.72903 159.366 7.44516C159.495 7.16129 159.667 6.91183 159.882 6.69677C160.106 6.48172 160.355 6.31398 160.63 6.19355C160.906 6.06452 161.194 6 161.495 6C161.805 6 162.101 6.06021 162.385 6.18064C162.669 6.30107 162.919 6.46882 163.134 6.68387C163.357 6.89892 163.534 7.14839 163.663 7.43226C163.8 7.71613 163.869 8.0215 163.869 8.34839Z" fill="#00C6CE"/>
<path d="M176.143 15.3032C176.143 15.914 176.022 16.4731 175.781 16.9806C175.541 17.4882 175.119 17.9398 174.517 18.3355C173.923 18.7226 173.119 19.0538 172.104 19.329C171.098 19.6043 169.829 19.8194 168.298 19.9742C168.315 20.886 168.513 21.5527 168.891 21.9742C169.278 22.3957 169.846 22.6065 170.594 22.6065C170.947 22.6065 171.252 22.5763 171.51 22.5161C171.769 22.4559 171.992 22.3785 172.181 22.2839C172.379 22.1892 172.556 22.0903 172.71 21.9871C172.865 21.8839 173.012 21.7849 173.149 21.6903C173.295 21.5957 173.446 21.5183 173.601 21.4581C173.756 21.3979 173.932 21.3677 174.13 21.3677C174.259 21.3677 174.384 21.4022 174.504 21.471C174.624 21.5312 174.732 21.6129 174.827 21.7161L175.859 22.9161C175.386 23.3806 174.921 23.7849 174.465 24.129C174.018 24.4645 173.553 24.7441 173.072 24.9677C172.599 25.1828 172.091 25.3419 171.549 25.4452C171.016 25.5484 170.431 25.6 169.794 25.6C169.003 25.6 168.276 25.4667 167.614 25.2C166.951 24.9247 166.379 24.5419 165.898 24.0516C165.424 23.5527 165.055 22.9548 164.788 22.2581C164.53 21.5613 164.401 20.7871 164.401 19.9355C164.401 19.2215 164.478 18.5247 164.633 17.8452C164.797 17.1656 165.024 16.529 165.317 15.9355C165.618 15.3333 165.984 14.7828 166.414 14.2839C166.844 13.7763 167.326 13.3419 167.859 12.9806C168.401 12.6194 168.99 12.3398 169.627 12.1419C170.272 11.9355 170.956 11.8323 171.678 11.8323C172.392 11.8323 173.024 11.9355 173.575 12.1419C174.134 12.3484 174.603 12.6194 174.981 12.9548C175.36 13.2817 175.648 13.6516 175.846 14.0645C176.044 14.4774 176.143 14.8903 176.143 15.3032ZM171.446 14.529C170.784 14.529 170.203 14.7957 169.704 15.329C169.205 15.8538 168.831 16.5763 168.581 17.4968C169.416 17.3677 170.091 17.2344 170.607 17.0968C171.123 16.9505 171.523 16.7957 171.807 16.6323C172.091 16.4602 172.28 16.2796 172.375 16.0903C172.478 15.8925 172.53 15.6817 172.53 15.4581C172.53 15.2344 172.444 15.0237 172.272 14.8258C172.1 14.628 171.824 14.529 171.446 14.529Z" fill="#00C6CE"/>
<path d="M187.404 23.0452C186.974 23.5183 186.561 23.9183 186.165 24.2452C185.77 24.572 185.361 24.8344 184.94 25.0323C184.518 25.2301 184.066 25.372 183.585 25.4581C183.112 25.5527 182.587 25.6 182.01 25.6C181.228 25.6 180.522 25.4667 179.894 25.2C179.266 24.9333 178.729 24.5548 178.281 24.0645C177.843 23.5742 177.503 22.9806 177.262 22.2839C177.021 21.5871 176.901 20.8043 176.901 19.9355C176.901 18.843 177.077 17.8065 177.43 16.8258C177.791 15.8452 178.29 14.9849 178.927 14.2452C179.572 13.5054 180.333 12.9204 181.21 12.4903C182.088 12.0516 183.051 11.8323 184.101 11.8323C184.995 11.8323 185.761 11.9871 186.398 12.2968C187.043 12.5978 187.619 13.0753 188.127 13.729L186.836 15.2129C186.742 15.3075 186.634 15.3935 186.514 15.471C186.393 15.5398 186.26 15.5742 186.114 15.5742C185.942 15.5742 185.795 15.5398 185.675 15.471C185.563 15.3935 185.438 15.3161 185.301 15.2387C185.163 15.1527 184.995 15.0753 184.798 15.0065C184.6 14.929 184.342 14.8903 184.023 14.8903C183.628 14.8903 183.241 15.0065 182.862 15.2387C182.492 15.4624 182.161 15.7892 181.869 16.2194C181.576 16.6495 181.34 17.1785 181.159 17.8065C180.987 18.4344 180.901 19.1484 180.901 19.9484C180.901 20.3957 180.952 20.7871 181.056 21.1226C181.159 21.4495 181.301 21.7247 181.481 21.9484C181.662 22.1634 181.873 22.3269 182.114 22.4387C182.355 22.5505 182.613 22.6065 182.888 22.6065C183.301 22.6065 183.632 22.5505 183.881 22.4387C184.14 22.3183 184.363 22.1892 184.552 22.0516C184.742 21.914 184.918 21.7892 185.081 21.6774C185.245 21.557 185.443 21.4968 185.675 21.4968C185.804 21.4968 185.929 21.5269 186.049 21.5871C186.178 21.6473 186.286 21.729 186.372 21.8323L187.404 23.0452Z" fill="#00C6CE"/>
<path d="M189.429 22.5032C189.429 22.443 189.429 22.3699 189.429 22.2839C189.429 22.1979 189.434 22.0774 189.442 21.9226C189.459 21.7591 189.481 21.5484 189.507 21.2903C189.541 21.0237 189.584 20.6753 189.636 20.2452L190.32 14.7742H189.249C189.085 14.7742 188.948 14.7226 188.836 14.6194C188.724 14.5075 188.668 14.3441 188.668 14.129C188.668 14.1204 188.677 14.0473 188.694 13.9097C188.711 13.7634 188.728 13.6129 188.745 13.4581C188.763 13.2946 188.78 13.1441 188.797 13.0065C188.814 12.8688 188.823 12.7914 188.823 12.7742L188.862 12.4258L190.887 12.0129L192.01 8.74839C192.139 8.33548 192.431 8.12903 192.887 8.12903H195.055L194.565 12.0387H197.558L197.223 14.7742H194.229L193.584 20.0258C193.541 20.3785 193.507 20.6581 193.481 20.8645C193.464 21.0624 193.446 21.2172 193.429 21.329C193.421 21.4323 193.412 21.5054 193.403 21.5484C193.403 21.5828 193.403 21.6043 193.403 21.6129C193.403 21.8624 193.459 22.0731 193.571 22.2452C193.692 22.4086 193.877 22.4903 194.126 22.4903C194.264 22.4903 194.375 22.4774 194.462 22.4516C194.556 22.4172 194.638 22.3828 194.707 22.3484C194.775 22.3054 194.84 22.271 194.9 22.2452C194.96 22.2108 195.029 22.1936 195.107 22.1936C195.227 22.1936 195.317 22.2237 195.378 22.2839C195.438 22.3355 195.494 22.4215 195.545 22.5419L196.423 24.4387C195.889 24.8258 195.317 25.1183 194.707 25.3161C194.096 25.5054 193.481 25.6 192.861 25.6C192.345 25.6 191.881 25.5312 191.468 25.3935C191.055 25.2473 190.698 25.0409 190.397 24.7742C190.105 24.4989 189.872 24.172 189.7 23.7935C189.537 23.4151 189.446 22.9849 189.429 22.5032Z" fill="#00C6CE"/>
<path d="M203.371 12.0129L201.771 25.3935H197.822L199.422 12.0129H203.371ZM204.119 8.34839C204.119 8.66667 204.05 8.96774 203.913 9.25161C203.775 9.52688 203.594 9.77204 203.371 9.9871C203.147 10.1935 202.889 10.3613 202.597 10.4903C202.313 10.6108 202.02 10.671 201.719 10.671C201.418 10.671 201.13 10.6108 200.855 10.4903C200.579 10.3613 200.334 10.1935 200.119 9.9871C199.913 9.77204 199.745 9.52688 199.616 9.25161C199.487 8.96774 199.422 8.66667 199.422 8.34839C199.422 8.03011 199.487 7.72903 199.616 7.44516C199.745 7.16129 199.917 6.91183 200.132 6.69677C200.356 6.48172 200.605 6.31398 200.88 6.19355C201.156 6.06452 201.444 6 201.745 6C202.055 6 202.351 6.06021 202.635 6.18064C202.919 6.30107 203.169 6.46882 203.384 6.68387C203.607 6.89892 203.784 7.14839 203.913 7.43226C204.05 7.71613 204.119 8.0215 204.119 8.34839Z" fill="#00C6CE"/>
<path d="M210.146 22.6323C210.593 22.6323 210.993 22.4989 211.346 22.2323C211.698 21.957 211.995 21.5871 212.236 21.1226C212.486 20.6495 212.675 20.1032 212.804 19.4839C212.941 18.8559 213.01 18.1892 213.01 17.4839C213.01 16.5118 212.877 15.8194 212.61 15.4065C212.352 14.9849 211.926 14.7742 211.333 14.7742C210.886 14.7742 210.486 14.9118 210.133 15.1871C209.78 15.4538 209.479 15.8194 209.23 16.2839C208.989 16.7484 208.8 17.2946 208.662 17.9226C208.533 18.5505 208.468 19.2172 208.468 19.9226C208.468 20.8774 208.597 21.5699 208.855 22C209.122 22.4215 209.552 22.6323 210.146 22.6323ZM209.784 25.6C209.036 25.6 208.335 25.4753 207.681 25.2258C207.036 24.9763 206.473 24.6151 205.991 24.1419C205.518 23.6602 205.144 23.071 204.868 22.3742C204.602 21.6688 204.468 20.8602 204.468 19.9484C204.468 18.7613 204.662 17.6731 205.049 16.6839C205.445 15.686 205.974 14.8258 206.636 14.1032C207.298 13.3806 208.064 12.8172 208.933 12.4129C209.81 12.0086 210.731 11.8065 211.694 11.8065C212.443 11.8065 213.139 11.9312 213.784 12.1806C214.43 12.4301 214.989 12.7957 215.462 13.2774C215.944 13.7505 216.322 14.3398 216.597 15.0452C216.873 15.7419 217.01 16.5462 217.01 17.4581C217.01 18.628 216.812 19.7118 216.417 20.7097C216.03 21.6989 215.505 22.5591 214.843 23.2903C214.18 24.0129 213.41 24.5806 212.533 24.9936C211.664 25.3979 210.748 25.6 209.784 25.6Z" fill="#00C6CE"/>
<path d="M225.671 25.3935L226.677 16.8903C226.695 16.7527 226.708 16.628 226.716 16.5161C226.725 16.3957 226.729 16.2839 226.729 16.1806C226.729 15.7247 226.647 15.4108 226.484 15.2387C226.329 15.0581 226.092 14.9677 225.774 14.9677C225.482 14.9677 225.176 15.0581 224.858 15.2387C224.54 15.4194 224.234 15.6731 223.942 16C223.658 16.3269 223.396 16.7269 223.155 17.2C222.914 17.6645 222.725 18.1806 222.587 18.7484L221.852 25.3935H217.852L219.452 12.0129H221.516C221.929 12.0129 222.252 12.1118 222.484 12.3097C222.716 12.4989 222.832 12.8129 222.832 13.2516V14.3226C223.477 13.4624 224.183 12.8301 224.948 12.4258C225.714 12.0129 226.505 11.8065 227.323 11.8065C227.822 11.8065 228.277 11.8968 228.69 12.0774C229.112 12.2581 229.473 12.5247 229.774 12.8774C230.075 13.2215 230.312 13.6473 230.484 14.1548C230.656 14.6624 230.742 15.2473 230.742 15.9097C230.742 16.0645 230.733 16.2237 230.716 16.3871C230.708 16.5505 230.695 16.7183 230.677 16.8903L229.671 25.3935H225.671Z" fill="#00C6CE"/>
</svg>
